<svg xmlns="http://www.w3.org/2000/svg" xmlns:xlink="http://www.w3.org/1999/xlink" width="500" zoomAndPan="magnify" viewBox="0 0 375 374.999991" height="500" preserveAspectRatio="xMidYMid meet" version="1.0"><defs><g/><clipPath id="3deeb7fc2c"><path d="M 110 109.941406 L 265 109.941406 L 265 265.15625 L 110 265.15625 Z M 110 109.941406 " clip-rule="nonzero"/></clipPath><clipPath id="c26c316b45"><path d="M 93.335938 169 L 122 169 L 122 177 L 93.335938 177 Z M 93.335938 169 " clip-rule="nonzero"/></clipPath><clipPath id="60dec59ccc"><path d="M 253 169 L 281.585938 169 L 281.585938 177 L 253 177 Z M 253 169 " clip-rule="nonzero"/></clipPath></defs><g clip-path="url(#3deeb7fc2c)"><path fill="#000000" d="M 256.953125 221.9375 C 244.273438 247.464844 217.933594 265.011719 187.496094 265.011719 C 157.058594 265.011719 130.722656 247.464844 118.039062 221.9375 L 129.890625 221.9375 C 141.613281 241.507812 163.023438 254.609375 187.496094 254.609375 C 211.96875 254.609375 233.378906 241.507812 245.105469 221.9375 Z M 187.496094 109.984375 C 226.671875 109.984375 259.050781 139.046875 264.269531 176.785156 L 253.75 176.785156 C 248.621094 144.816406 220.914062 120.390625 187.496094 120.390625 C 154.078125 120.390625 126.371094 144.816406 121.242188 176.785156 L 110.722656 176.785156 C 115.941406 139.046875 148.320312 109.984375 187.496094 109.984375 Z M 187.496094 109.984375 " fill-opacity="1" fill-rule="evenodd"/></g><g clip-path="url(#c26c316b45)"><path fill="#000000" d="M 121.238281 176.785156 L 93.335938 176.785156 L 121.238281 169.289062 Z M 121.238281 176.785156 " fill-opacity="1" fill-rule="evenodd"/></g><g clip-path="url(#60dec59ccc)"><path fill="#000000" d="M 253.75 176.785156 L 281.652344 176.785156 L 253.75 169.289062 Z M 253.75 176.785156 " fill-opacity="1" fill-rule="evenodd"/></g><path fill="#000000" d="M 129.890625 221.9375 L 101.988281 221.9375 L 129.890625 229.433594 Z M 129.890625 221.9375 " fill-opacity="1" fill-rule="evenodd"/><path fill="#000000" d="M 245.105469 221.9375 L 273.007812 221.9375 L 245.105469 229.433594 Z M 245.105469 221.9375 " fill-opacity="1" fill-rule="evenodd"/><path fill="#ff914d" d="M 187.496094 168.355469 C 194.097656 168.355469 199.921875 171.699219 203.363281 176.785156 L 195.234375 176.785156 C 192.050781 174.429688 188.117188 173.039062 183.855469 173.039062 C 178.777344 173.039062 174.164062 175.011719 170.738281 178.238281 C 174.003906 172.34375 180.285156 168.355469 187.496094 168.355469 " fill-opacity="1" fill-rule="evenodd"/><path fill="#ff914d" d="M 215.070312 139.894531 C 216.628906 140.796875 217.171875 142.808594 216.269531 144.371094 L 197.753906 176.445312 L 192.074219 173.167969 L 210.589844 141.09375 C 211.492188 139.53125 213.507812 138.992188 215.070312 139.894531 " fill-opacity="1" fill-rule="evenodd"/><path fill="#000000" d="M 185.933594 119.453125 L 187.703125 119.453125 L 187.703125 130.792969 L 185.933594 130.792969 Z M 185.933594 119.453125 " fill-opacity="1" fill-rule="evenodd"/><path fill="#000000" d="M 173.023438 132.671875 L 171.3125 133.128906 L 168.375 122.175781 L 170.085938 121.71875 Z M 173.023438 132.671875 " fill-opacity="1" fill-rule="evenodd"/><path fill="#000000" d="M 159.324219 138.289062 L 157.792969 139.171875 L 152.125 129.351562 L 153.65625 128.46875 Z M 159.324219 138.289062 " fill-opacity="1" fill-rule="evenodd"/><path fill="#000000" d="M 147.546875 147.257812 L 146.292969 148.507812 L 138.277344 140.484375 L 139.53125 139.234375 Z M 147.546875 147.257812 " fill-opacity="1" fill-rule="evenodd"/><path fill="#000000" d="M 138.488281 158.964844 L 137.605469 160.496094 L 127.785156 154.828125 L 128.667969 153.296875 Z M 138.488281 158.964844 " fill-opacity="1" fill-rule="evenodd"/><path fill="#000000" d="M 132.773438 172.621094 L 132.316406 174.328125 L 121.359375 171.394531 L 121.816406 169.6875 Z M 132.773438 172.621094 " fill-opacity="1" fill-rule="evenodd"/><path fill="#000000" d="M 202.375 132.78125 L 200.667969 132.320312 L 203.601562 121.367188 L 205.308594 121.824219 Z M 202.375 132.78125 " fill-opacity="1" fill-rule="evenodd"/><path fill="#000000" d="M 216.035156 138.5 L 214.503906 137.617188 L 220.175781 127.792969 L 221.707031 128.675781 Z M 216.035156 138.5 " fill-opacity="1" fill-rule="evenodd"/><path fill="#000000" d="M 227.742188 147.550781 L 226.488281 146.300781 L 234.507812 138.28125 L 235.761719 139.53125 Z M 227.742188 147.550781 " fill-opacity="1" fill-rule="evenodd"/><path fill="#000000" d="M 236.703125 159.324219 L 235.820312 157.792969 L 245.644531 152.125 L 246.527344 153.65625 Z M 236.703125 159.324219 " fill-opacity="1" fill-rule="evenodd"/><path fill="#000000" d="M 242.324219 173.023438 L 241.867188 171.316406 L 252.820312 168.382812 L 253.277344 170.089844 Z M 242.324219 173.023438 " fill-opacity="1" fill-rule="evenodd"/><path fill="#ff914d" d="M 215.070312 142.160156 C 227.433594 149.691406 236.472656 162.136719 239.476562 176.785156 L 238.03125 176.785156 C 234.394531 163.164062 225.46875 151.699219 213.589844 144.726562 Z M 187.496094 134.4375 C 195.257812 134.4375 202.625 136.105469 209.269531 139.097656 L 207.730469 141.757812 C 201.300781 138.988281 194.214844 137.453125 186.769531 137.453125 C 162.300781 137.453125 141.707031 154.015625 135.570312 176.539062 C 140.621094 152.492188 161.949219 134.4375 187.496094 134.4375 Z M 187.496094 134.4375 " fill-opacity="1" fill-rule="evenodd"/><path fill="#ff914d" d="M 239.769531 227.644531 C 227.722656 243.3125 208.789062 253.410156 187.496094 253.410156 C 166.203125 253.410156 147.269531 243.3125 135.222656 227.644531 C 147.734375 242.058594 166.503906 251.226562 187.496094 251.226562 C 208.488281 251.226562 227.261719 242.058594 239.769531 227.644531 " fill-opacity="1" fill-rule="evenodd"/><g fill="#1a1a1a" fill-opacity="1"><g transform="translate(78.986025, 213.679172)"><g><path d="M 15.566406 0.621094 C 22.28125 0.621094 27.558594 -3.882812 28.800781 -10.597656 L 22.863281 -10.597656 C 21.890625 -7.179688 19.136719 -5.007812 15.566406 -5.007812 C 10.945312 -5.007812 7.492188 -8.65625 7.492188 -13.546875 C 7.492188 -18.4375 10.945312 -22.125 15.566406 -22.125 C 18.980469 -22.125 21.699219 -20.105469 22.824219 -16.921875 L 28.683594 -16.921875 C 27.441406 -23.367188 22.164062 -27.753906 15.566406 -27.753906 C 7.570312 -27.753906 1.515625 -21.621094 1.515625 -13.546875 C 1.515625 -5.511719 7.570312 0.621094 15.566406 0.621094 Z M 15.566406 0.621094 "/></g></g></g><g fill="#1a1a1a" fill-opacity="1"><g transform="translate(110.464886, 213.679172)"><g><path d="M 15.992188 0.621094 C 24.257812 0.621094 30.429688 -5.472656 30.429688 -13.585938 C 30.429688 -21.660156 24.257812 -27.753906 15.992188 -27.753906 C 7.683594 -27.753906 1.476562 -21.621094 1.476562 -13.585938 C 1.476562 -5.511719 7.683594 0.621094 15.992188 0.621094 Z M 15.992188 -4.929688 C 11.140625 -4.929688 7.453125 -8.695312 7.453125 -13.585938 C 7.453125 -18.476562 11.140625 -22.203125 15.992188 -22.203125 C 20.84375 -22.203125 24.453125 -18.515625 24.453125 -13.585938 C 24.453125 -8.65625 20.84375 -4.929688 15.992188 -4.929688 Z M 15.992188 -4.929688 "/></g></g></g><g fill="#1a1a1a" fill-opacity="1"><g transform="translate(143.962119, 213.679172)"><g><path d="M 14.050781 0.621094 C 20.457031 0.621094 25.269531 -3.84375 25.269531 -10.207031 L 25.269531 -27.171875 L 19.367188 -27.171875 L 19.367188 -10.480469 C 19.367188 -7.101562 17.15625 -4.929688 14.050781 -4.929688 C 10.90625 -4.929688 8.695312 -7.101562 8.695312 -10.480469 L 8.695312 -27.171875 L 2.792969 -27.171875 L 2.792969 -10.207031 C 2.792969 -3.84375 7.609375 0.621094 14.050781 0.621094 Z M 14.050781 0.621094 "/></g></g></g><g fill="#1a1a1a" fill-opacity="1"><g transform="translate(173.616687, 213.679172)"><g><path d="M 20.300781 -27.171875 L 20.300781 -10.597656 L 8.382812 -27.171875 L 3.105469 -27.171875 L 3.105469 0 L 8.851562 0 L 8.851562 -16.960938 L 21.152344 0 L 26.082031 0 L 26.082031 -27.171875 Z M 20.300781 -27.171875 "/></g></g></g><g fill="#1a1a1a" fill-opacity="1"><g transform="translate(204.358066, 213.679172)"><g><path d="M 21.8125 -27.171875 L 0.816406 -27.171875 L 0.816406 -21.699219 L 8.382812 -21.699219 L 8.382812 0 L 14.246094 0 L 14.246094 -21.699219 L 21.8125 -21.699219 Z M 21.8125 -27.171875 "/></g></g></g><g fill="#1a1a1a" fill-opacity="1"><g transform="translate(228.578548, 213.679172)"><g><path d="M 14.050781 0.621094 C 20.457031 0.621094 25.269531 -3.84375 25.269531 -10.207031 L 25.269531 -27.171875 L 19.367188 -27.171875 L 19.367188 -10.480469 C 19.367188 -7.101562 17.15625 -4.929688 14.050781 -4.929688 C 10.90625 -4.929688 8.695312 -7.101562 8.695312 -10.480469 L 8.695312 -27.171875 L 2.792969 -27.171875 L 2.792969 -10.207031 C 2.792969 -3.84375 7.609375 0.621094 14.050781 0.621094 Z M 14.050781 0.621094 "/></g></g></g><g fill="#1a1a1a" fill-opacity="1"><g transform="translate(258.233116, 213.679172)"><g><path d="M 13.546875 -27.171875 L 3.105469 -27.171875 L 3.105469 0 L 8.964844 0 L 8.964844 -8.460938 L 13.546875 -8.460938 C 19.019531 -8.460938 23.132812 -12.460938 23.132812 -17.816406 C 23.132812 -23.171875 18.980469 -27.171875 13.546875 -27.171875 Z M 13.273438 -13.894531 L 8.964844 -13.894531 L 8.964844 -21.699219 L 13.273438 -21.699219 C 15.605469 -21.699219 17.195312 -20.066406 17.195312 -17.816406 C 17.195312 -15.566406 15.605469 -13.894531 13.273438 -13.894531 Z M 13.273438 -13.894531 "/></g></g></g><g fill="#1a1a1a" fill-opacity="1"><g transform="translate(283.928566, 213.679172)"><g><path d="M 3.144531 -8.773438 L 8.886719 -8.773438 L 8.886719 -27.945312 L 3.144531 -27.945312 Z M 3.027344 0 L 9.042969 0 L 9.042969 -6.054688 L 3.027344 -6.054688 Z M 3.027344 0 "/></g></g></g><g fill="#1a1a1a" fill-opacity="1"><g transform="translate(151.37215, 229.445827)"><g><path d="M 4.984375 -4.921875 L 1.578125 -0.84375 L 5.03125 -0.84375 L 5.03125 0 L 0.296875 0 L 0.296875 -0.6875 L 3.71875 -4.75 L 0.40625 -4.75 L 0.40625 -5.59375 L 4.984375 -5.59375 Z M 4.984375 -4.921875 "/></g></g></g><g fill="#1a1a1a" fill-opacity="1"><g transform="translate(158.700176, 229.445827)"><g><path d="M 4.734375 -4.75 L 1.6875 -4.75 L 1.6875 -3.234375 L 4.421875 -3.234375 L 4.421875 -2.390625 L 1.6875 -2.390625 L 1.6875 -0.84375 L 4.828125 -0.84375 L 4.828125 0 L 0.734375 0 L 0.734375 -5.59375 L 4.734375 -5.59375 Z M 4.734375 -4.75 "/></g></g></g><g fill="#1a1a1a" fill-opacity="1"><g transform="translate(165.948206, 229.445827)"><g><path d="M 4.28125 0 L 3.265625 -1.703125 C 3.210938 -1.691406 3.128906 -1.6875 3.015625 -1.6875 L 1.6875 -1.6875 L 1.6875 0 L 0.734375 0 L 0.734375 -5.59375 L 3.015625 -5.59375 C 3.722656 -5.59375 4.273438 -5.425781 4.671875 -5.09375 C 5.066406 -4.757812 5.265625 -4.289062 5.265625 -3.6875 C 5.265625 -3.238281 5.160156 -2.859375 4.953125 -2.546875 C 4.753906 -2.242188 4.472656 -2.019531 4.109375 -1.875 L 5.359375 0 Z M 1.6875 -2.53125 L 3.015625 -2.53125 C 3.921875 -2.53125 4.375 -2.90625 4.375 -3.65625 C 4.375 -4.382812 3.921875 -4.75 3.015625 -4.75 L 1.6875 -4.75 Z M 1.6875 -2.53125 "/></g></g></g><g fill="#1a1a1a" fill-opacity="1"><g transform="translate(173.732236, 229.445827)"><g><path d="M 1.125 -4.8125 C 1.695312 -5.351562 2.398438 -5.625 3.234375 -5.625 C 4.078125 -5.625 4.78125 -5.351562 5.34375 -4.8125 C 5.914062 -4.269531 6.203125 -3.597656 6.203125 -2.796875 C 6.203125 -1.992188 5.914062 -1.316406 5.34375 -0.765625 C 4.78125 -0.222656 4.078125 0.046875 3.234375 0.046875 C 2.398438 0.046875 1.695312 -0.222656 1.125 -0.765625 C 0.550781 -1.316406 0.265625 -1.992188 0.265625 -2.796875 C 0.265625 -3.597656 0.550781 -4.269531 1.125 -4.8125 Z M 3.25 -4.78125 C 2.695312 -4.78125 2.222656 -4.585938 1.828125 -4.203125 C 1.429688 -3.816406 1.234375 -3.347656 1.234375 -2.796875 C 1.234375 -2.242188 1.429688 -1.773438 1.828125 -1.390625 C 2.222656 -1.003906 2.695312 -0.8125 3.25 -0.8125 C 3.800781 -0.8125 4.269531 -1.003906 4.65625 -1.390625 C 5.039062 -1.773438 5.234375 -2.242188 5.234375 -2.796875 C 5.234375 -3.347656 5.039062 -3.816406 4.65625 -4.203125 C 4.269531 -4.585938 3.800781 -4.78125 3.25 -4.78125 Z M 3.25 -4.78125 "/></g></g></g><g fill="#1a1a1a" fill-opacity="1"><g transform="translate(182.212269, 229.445827)"><g/></g></g><g fill="#1a1a1a" fill-opacity="1"><g transform="translate(186.276281, 229.445827)"><g><path d="M 4.5625 -4.75 L 2.78125 -4.75 L 2.78125 0 L 1.84375 0 L 1.84375 -4.75 L 0.078125 -4.75 L 0.078125 -5.59375 L 4.5625 -5.59375 Z M 4.5625 -4.75 "/></g></g></g><g fill="#1a1a1a" fill-opacity="1"><g transform="translate(192.908304, 229.445827)"><g><path d="M 1.125 -4.8125 C 1.695312 -5.351562 2.398438 -5.625 3.234375 -5.625 C 4.078125 -5.625 4.78125 -5.351562 5.34375 -4.8125 C 5.914062 -4.269531 6.203125 -3.597656 6.203125 -2.796875 C 6.203125 -1.992188 5.914062 -1.316406 5.34375 -0.765625 C 4.78125 -0.222656 4.078125 0.046875 3.234375 0.046875 C 2.398438 0.046875 1.695312 -0.222656 1.125 -0.765625 C 0.550781 -1.316406 0.265625 -1.992188 0.265625 -2.796875 C 0.265625 -3.597656 0.550781 -4.269531 1.125 -4.8125 Z M 3.25 -4.78125 C 2.695312 -4.78125 2.222656 -4.585938 1.828125 -4.203125 C 1.429688 -3.816406 1.234375 -3.347656 1.234375 -2.796875 C 1.234375 -2.242188 1.429688 -1.773438 1.828125 -1.390625 C 2.222656 -1.003906 2.695312 -0.8125 3.25 -0.8125 C 3.800781 -0.8125 4.269531 -1.003906 4.65625 -1.390625 C 5.039062 -1.773438 5.234375 -2.242188 5.234375 -2.796875 C 5.234375 -3.347656 5.039062 -3.816406 4.65625 -4.203125 C 4.269531 -4.585938 3.800781 -4.78125 3.25 -4.78125 Z M 3.25 -4.78125 "/></g></g></g><g fill="#1a1a1a" fill-opacity="1"><g transform="translate(201.388337, 229.445827)"><g/></g></g><g fill="#1a1a1a" fill-opacity="1"><g transform="translate(205.452349, 229.445827)"><g><path d="M 2.140625 0 L 1.203125 0 L 1.203125 -4.765625 L 0.109375 -4.765625 L 0.109375 -5.59375 L 2.140625 -5.59375 Z M 2.140625 0 "/></g></g></g><g fill="#1a1a1a" fill-opacity="1"><g transform="translate(210.548363, 229.445827)"><g><path d="M 2.765625 -5.625 C 3.523438 -5.625 4.109375 -5.378906 4.515625 -4.890625 C 4.929688 -4.398438 5.140625 -3.703125 5.140625 -2.796875 C 5.140625 -1.890625 4.929688 -1.191406 4.515625 -0.703125 C 4.109375 -0.210938 3.523438 0.03125 2.765625 0.03125 C 1.992188 0.03125 1.40625 -0.210938 1 -0.703125 C 0.59375 -1.191406 0.390625 -1.890625 0.390625 -2.796875 C 0.390625 -3.703125 0.59375 -4.398438 1 -4.890625 C 1.40625 -5.378906 1.992188 -5.625 2.765625 -5.625 Z M 2.765625 -4.875 C 1.828125 -4.875 1.359375 -4.179688 1.359375 -2.796875 C 1.359375 -1.410156 1.828125 -0.71875 2.765625 -0.71875 C 3.703125 -0.71875 4.171875 -1.410156 4.171875 -2.796875 C 4.171875 -4.179688 3.703125 -4.875 2.765625 -4.875 Z M 2.765625 -4.875 "/></g></g></g><g fill="#1a1a1a" fill-opacity="1"><g transform="translate(218.076391, 229.445827)"><g><path d="M 2.765625 -5.625 C 3.523438 -5.625 4.109375 -5.378906 4.515625 -4.890625 C 4.929688 -4.398438 5.140625 -3.703125 5.140625 -2.796875 C 5.140625 -1.890625 4.929688 -1.191406 4.515625 -0.703125 C 4.109375 -0.210938 3.523438 0.03125 2.765625 0.03125 C 1.992188 0.03125 1.40625 -0.210938 1 -0.703125 C 0.59375 -1.191406 0.390625 -1.890625 0.390625 -2.796875 C 0.390625 -3.703125 0.59375 -4.398438 1 -4.890625 C 1.40625 -5.378906 1.992188 -5.625 2.765625 -5.625 Z M 2.765625 -4.875 C 1.828125 -4.875 1.359375 -4.179688 1.359375 -2.796875 C 1.359375 -1.410156 1.828125 -0.71875 2.765625 -0.71875 C 3.703125 -0.71875 4.171875 -1.410156 4.171875 -2.796875 C 4.171875 -4.179688 3.703125 -4.875 2.765625 -4.875 Z M 2.765625 -4.875 "/></g></g></g></svg>